<?xml version="1.0" encoding="UTF-8"?>
<svg id="Layer_1" data-name="Layer 1" xmlns="http://www.w3.org/2000/svg" width="126.94" height="137.22" version="1.1" viewBox="0 0 126.94 137.22">
  <path d="M105.07,10.28V0h-3.56v10.28h-36.25V0h-3.56v10.28H25.43V0h-3.56v10.28H0v126.94h126.94V10.28h-21.87ZM3.56,41.01h37.56v28.51H3.56v-28.51ZM82.25,69.51h-37.56v-28.51h37.56v28.51ZM82.25,73.08v28.51h-37.56v-28.51h37.56ZM3.56,73.08h37.56v28.51H3.56v-28.51ZM3.56,133.66v-28.51h37.56v28.51H3.56ZM44.69,133.66v-28.51h37.56v28.51h-37.56ZM123.37,133.66h-37.56v-28.51h37.56v28.51ZM123.37,101.59h-37.56v-28.51h37.56v28.51ZM123.37,69.51h-37.56v-28.51h37.56v28.51ZM85.81,37.44H3.56V13.85h18.31v7.88h3.56v-7.88h36.25v7.88h3.56v-7.88h36.25v7.88h3.56v-7.88h18.31v23.6h-37.56Z" fill="#231f20" stroke-width="0"/>
  <polygon points="97.07 92.51 99.59 95.03 104.78 89.85 109.96 95.03 112.48 92.51 107.3 87.33 112.48 82.15 109.96 79.63 104.78 84.81 99.59 79.63 97.07 82.15 102.26 87.33 97.07 92.51" fill="#231f20" stroke-width="0"/>
</svg>