<?xml version="1.0" encoding="UTF-8"?>
<svg id="Layer_1" data-name="Layer 1" xmlns="http://www.w3.org/2000/svg" width="151.12" height="145.53" version="1.1" viewBox="0 0 151.12 145.53">
  <path d="M151.12,64.87h-10.67V25.78l-19.35-19.65c-.18-.2-.35-.4-.54-.59l-1.8-1.8c-4.97-4.97-13.06-4.97-18.04,0l-1.94,1.94,19.83,19.83,1.94-1.94c2.41-2.41,3.74-5.61,3.74-9.02,0-.03,0-.07,0-.1l12.59,12.79v37.63H51.79v-14.64h36.22V0H12v50.23h36.22v14.64H0v18.89h12v61.77h3.56v-61.77h77.34v43.98h43.98v17.79h3.56v-61.77h10.67v-18.89ZM120.74,14.55c0,2.18-.75,4.25-2.14,5.9l-14.74-14.74c3.61-3.02,9.01-2.84,12.4.55l.16.16h-.01s2.19,2.23,2.19,2.23c1.39,1.65,2.15,3.72,2.15,5.9ZM15.56,3.56h68.88v28.88H15.56V3.56ZM15.56,36.01h68.88v10.66H15.56v-10.66ZM136.89,124.17h-40.42v-18.43h40.42v18.43ZM136.89,102.18h-40.42v-18.43h40.42v18.43ZM147.56,80.19H3.56v-11.76h143.99v11.76Z" fill="#231f20" stroke-width="0"/>
</svg>