<svg xmlns="http://www.w3.org/2000/svg" viewBox="0 0 800 600"><defs><style>.cls-1{font-size:148.59px;font-family:ArialMT, Arial;letter-spacing:0.02em;}.cls-2{fill:#e9e9ea;}.cls-3{fill:#afadb3;}.cls-4{fill:#26acd9;}.cls-5{fill:#c0202f;}</style></defs><g id="_YOUR_TEXT_HERE_" data-name="[YOUR TEXT HERE]"><text class="cls-1" transform="translate(41.79 343.66)"><tspan xml:space="preserve">JSCH  CK</tspan></text><path class="cls-2" d="M454.66,399.45a14,14,0,0,1,3-1,1.5,1.5,0,0,0,.68-.22c0-.06-.37-1-.82-2s-.86-2-.9-2.13-.08-.18-.16,0-.59,1.36-1.19,2.81-1.11,2.68-1.14,2.73S454.17,399.7,454.66,399.45Z"/><path d="M546,352.32c-5-3.24-17.62-8.53-24.35-10.19-1.06-.27-1.5-.41-1.47-.5s0-.1-.09-.07-.21-.09-.35-.42c-.51-1.19-8.56-21.16-22-54.57-4.86-12.09-8.87-22-8.91-22.06s-3.54,7.61-7.78,17l-7.72,17.06c-3.78,2.91-15.4,6.27-15.21,5.12,0-.09,1.24-2.84,2.69-6.1,5-11.35,16-36.33,22.24-50.63,3.27-7.5,3.7-8.38,4.44-8.94,1.58-1.21,3.33-.64,4.28,1.37.16.33,1.46,3.16,2.9,6.28,2.27,4.92,10,21.6,16.33,35.19,3.61,7.47,6.94,14.91,10.15,21.77,9,19.31,14.19,30.32,17,36.19a42.23,42.23,0,0,0,2.05,3.85c1.43,2.21,4.66,6.89,6.24,9,.68.93.84,1.27.58,1.26A11.06,11.06,0,0,1,546,352.32Zm-109.74-4.54a22,22,0,0,1-2-3.18c.23.14,3.42-4.44,6.6-9.48,4.28-6.78,6.56-10.72,9.92-17.11l.63-1.21c5.32-3,11.62-6.28,16.73-6.87,0,0-13.86,30.78-14.17,31.38-.1.21-.29.31-.85.47-2.91.85-9.08,3-12.18,4.26-1.45.58-4.35,1.81-4.45,1.88S436.36,347.9,436.28,347.78Z"/><path id="path3730" class="cls-3" d="M515.29,276.81c-.27-.52-4.11-8.91-8.07-17.61L502.57,249c-.57-1.26-.65-1.5-.52-1.57a26.69,26.69,0,0,1,3.1-1,20.9,20.9,0,0,1,6.49-.63,17.14,17.14,0,0,1,9,3.12,18.65,18.65,0,0,1,3.69,3.68,20.75,20.75,0,0,1,2.2,4.29,14.82,14.82,0,0,1-.76,11.35,18.16,18.16,0,0,1-8.62,8.11C515.47,277.16,515.47,277.16,515.29,276.81ZM529,259.24c0-.11,0-.14.06-.06a.21.21,0,0,1,0,.19s-.06,0-.06-.13Zm-.72-1.24c-.07-.05.08-.08.35-.08a1.75,1.75,0,0,1,.47,0C529.06,258,528.36,258.07,528.24,258Z"/><path id="path3728" class="cls-4" d="M578.85,388.4c-3.35-2.5-5.5-4-8.3-5.9A140.91,140.91,0,0,0,524,362.41a170.81,170.81,0,0,0-48.81-4.16,146.52,146.52,0,0,0-56.46,15,162.55,162.55,0,0,0-23.27,14.18c-1.95,1.39-3.62,2.56-3.69,2.6a42.81,42.81,0,0,1,2.84-3.75,112.83,112.83,0,0,1,34.05-28.16A121.4,121.4,0,0,1,476.79,344a130.46,130.46,0,0,1,19.37,0,120.8,120.8,0,0,1,33.63,7.57,118,118,0,0,1,47.43,33.52c1.59,1.85,4.3,5.21,4.18,5.18s-1.17-.85-2.55-1.89Z"/><path id="path3726" class="cls-5" d="M408.35,363.5a34.83,34.83,0,0,1-2.46-8.22,38.7,38.7,0,0,1,0-7.76q2.07-13.11,16.24-24.42c11-8.8,27.32-16.73,48.54-23.62,5.79-1.89,14.47-4.52,21.94-6.67l1.35-.39,1.14,3c.62,1.63,1.31,3.42,1.53,4a4.47,4.47,0,0,1,.33,1.1c-.06.09-2.6.91-12.07,3.88C467.85,309.69,459,313,451.1,317a57.84,57.84,0,0,0-11.7,7.37,35.38,35.38,0,0,0-3.67,3.68,16.18,16.18,0,0,0-3.41,7.06,15.87,15.87,0,0,0,.1,4.71,20.25,20.25,0,0,0,3,6.88c.84,1.26.89,1.36.69,1.42-.5.16-4.76,2.22-6.93,3.37-7.6,4-14.82,8.72-19.23,12.6a3.62,3.62,0,0,1-.94.66C408.91,364.71,408.74,364.43,408.35,363.5ZM516.1,291.65,514.38,288l-1.32-2.83,2.19-1.12c14.22-7.3,22-14.22,21.23-18.8-.38-2.15-2.42-3.85-6.19-5.19-1.31-.46-1.18-.32-1.38-1.45a.57.57,0,0,0-.28-.48c-.15-.06.12-.08.87-.05a18.87,18.87,0,0,1,6.59,1.9c3,1.51,5,3.32,6,5.49a6.77,6.77,0,0,1,.71,3.17,11,11,0,0,1-2.34,6.45c-3.56,5.13-10.94,10.58-22.69,16.78l-1.27.67Z"/></g></svg>