<svg xmlns="http://www.w3.org/2000/svg" viewBox="0 0 800 600"><defs><style>.cls-1{font-size:148.59px;font-family:ArialMT, Arial;letter-spacing:0.02em;}.cls-1,.cls-2{fill:#fff;}.cls-3{fill:#afadb3;}.cls-4{fill:#26acd9;}.cls-5{fill:#c0202f;}</style></defs><g id="_YOUR_TEXT_HERE_" data-name="[YOUR TEXT HERE]"><text class="cls-1" transform="translate(46.57 343.88)"><tspan xml:space="preserve">JSCH  CK</tspan></text><path class="cls-2" d="M548.81,348.42c-5-3.25-17.62-8.53-24.35-10.2-1.06-.26-1.5-.41-1.46-.5s0-.1-.1-.07-.21-.09-.35-.42c-.51-1.19-8.56-21.16-22-54.57-4.86-12.09-8.87-22-8.91-22.06s-3.54,7.61-7.78,17l-7.72,17.06c-3.78,2.91-15.4,6.27-15.21,5.12,0-.09,1.24-2.84,2.69-6.1,5-11.35,16-36.33,22.24-50.63,3.27-7.5,3.7-8.38,4.44-8.94,1.58-1.2,3.33-.64,4.28,1.38.16.33,1.46,3.15,2.9,6.28,2.27,4.92,10,21.59,16.33,35.19,3.61,7.46,6.94,14.9,10.15,21.76C533,318,538.16,329,541,334.9a38.34,38.34,0,0,0,2.06,3.85c1.42,2.21,4.65,6.89,6.23,9,.68.92.84,1.27.59,1.26C549.81,349,549.34,348.76,548.81,348.42Zm-109.74-4.54a22.49,22.49,0,0,1-2-3.19c.23.14,3.42-4.44,6.6-9.47,4.28-6.79,6.56-10.73,9.92-17.12l.63-1.2c5.32-3,11.62-6.29,16.73-6.88,0,0-13.85,30.78-14.17,31.38-.1.21-.29.31-.85.48-2.91.85-9.08,3-12.18,4.25-1.45.58-4.35,1.81-4.45,1.89S439.15,344,439.07,343.88Z"/><path id="path3730" class="cls-3" d="M518.08,272.91c-.27-.53-4.11-8.92-8.07-17.62l-4.65-10.22c-.57-1.26-.65-1.5-.52-1.57a28.8,28.8,0,0,1,3.1-1,21.2,21.2,0,0,1,6.49-.63,17.14,17.14,0,0,1,9,3.12,18.65,18.65,0,0,1,3.69,3.68,20.75,20.75,0,0,1,2.2,4.29,14.82,14.82,0,0,1-.76,11.35,18.16,18.16,0,0,1-8.62,8.11C518.26,273.25,518.26,273.25,518.08,272.91Zm13.67-17.58c0-.11,0-.14.06-.06a.21.21,0,0,1,0,.19s-.06,0-.06-.13Zm-.72-1.24c-.07-.05.08-.08.35-.08a1.24,1.24,0,0,1,.47,0C531.85,254.13,531.15,254.16,531,254.09Z"/><path id="path3728" class="cls-4" d="M581.64,384.5c-3.35-2.5-5.5-4-8.3-5.91a140.91,140.91,0,0,0-46.58-20.09A171.17,171.17,0,0,0,478,354.34a146.52,146.52,0,0,0-56.46,15,161.78,161.78,0,0,0-23.27,14.19c-2,1.38-3.62,2.55-3.69,2.59a42.81,42.81,0,0,1,2.84-3.75,112.83,112.83,0,0,1,34.05-28.16,121.4,121.4,0,0,1,48.16-14.12,130.46,130.46,0,0,1,19.37,0,120.8,120.8,0,0,1,33.63,7.57A118.11,118.11,0,0,1,580,381.21c1.58,1.84,4.29,5.2,4.17,5.18l-2.55-1.89Z"/><path id="path3726" class="cls-5" d="M411.14,359.59a34.69,34.69,0,0,1-2.46-8.22,38.7,38.7,0,0,1,0-7.76q2.07-13.1,16.24-24.41c11-8.8,27.32-16.73,48.54-23.63,5.79-1.88,14.47-4.52,21.94-6.67l1.35-.38,1.14,3c.62,1.64,1.31,3.42,1.53,4a4.45,4.45,0,0,1,.33,1.09c-.06.1-2.6.91-12.07,3.88-17,5.35-25.86,8.64-33.78,12.61a58.1,58.1,0,0,0-11.71,7.37,35.38,35.38,0,0,0-3.67,3.68,16.21,16.21,0,0,0-3.41,7.07,15.81,15.81,0,0,0,.1,4.7,20.25,20.25,0,0,0,3,6.88c.84,1.26.89,1.36.69,1.42-.5.16-4.76,2.23-6.93,3.37-7.6,4-14.82,8.72-19.23,12.6a3.5,3.5,0,0,1-.94.67C411.7,360.81,411.53,360.52,411.14,359.59Zm107.75-71.85c-.22-.47-1-2.13-1.72-3.68l-1.32-2.82,2.19-1.13c14.22-7.3,22-14.22,21.23-18.8-.38-2.14-2.42-3.85-6.19-5.18-1.31-.47-1.18-.33-1.38-1.46,0-.25-.13-.41-.28-.47s.12-.08.87,0a18.45,18.45,0,0,1,6.59,1.9c3,1.5,5,3.32,6,5.48a6.77,6.77,0,0,1,.71,3.17,11,11,0,0,1-2.34,6.45c-3.56,5.13-10.94,10.59-22.69,16.79l-1.27.66Z"/></g></svg>