<svg xmlns="http://www.w3.org/2000/svg" viewBox="0 0 600 600"><defs><style>.cls-1{font-size:249px;font-family:ArialMT, Arial;letter-spacing:0.05em;}.cls-1,.cls-3{fill:#fff;}.cls-2{font-size:184.46px;letter-spacing:0.03em;}.cls-4{fill:#afadb3;}.cls-5{fill:#26acd9;}.cls-6{fill:#c0202f;}</style></defs><g id="_YOUR_TEXT_HERE_" data-name="[YOUR TEXT HERE]"><text class="cls-1" transform="translate(49.9 293.9)">JSC<tspan class="cls-2"><tspan x="-7.55" y="165.97" xml:space="preserve">H  CK</tspan></tspan></text><path class="cls-3" d="M305.6,470.24c-6.28-4.08-22.17-10.74-30.64-12.83-1.34-.33-1.89-.52-1.84-.63s0-.13-.12-.09-.26-.11-.44-.53c-.65-1.5-10.77-26.62-27.68-68.67-6.12-15.22-11.16-27.71-11.21-27.76s-4.46,9.57-9.79,21.38l-9.71,21.47c-4.76,3.66-19.38,7.89-19.15,6.45,0-.12,1.56-3.58,3.39-7.68,6.34-14.29,20.15-45.72,28-63.72,4.11-9.43,4.66-10.54,5.58-11.25,2-1.51,4.2-.81,5.39,1.73.2.42,1.84,4,3.65,7.9,2.86,6.2,12.59,27.18,20.55,44.29,4.54,9.39,8.73,18.76,12.77,27.39,11.35,24.3,17.86,38.15,21.4,45.54a50,50,0,0,0,2.58,4.85c1.8,2.78,5.86,8.67,7.84,11.37.86,1.16,1.06,1.59.74,1.58C306.86,471,306.27,470.67,305.6,470.24Zm-138.1-5.71a29,29,0,0,1-2.49-4c.29.18,4.3-5.6,8.3-11.93,5.39-8.54,8.27-13.49,12.49-21.53l.79-1.52c6.7-3.82,14.62-7.91,21-8.65,0,0-17.43,38.73-17.82,39.49-.14.26-.37.39-1.08.59-3.65,1.07-11.42,3.78-15.32,5.35-1.82.73-5.47,2.28-5.6,2.38S167.61,464.67,167.5,464.53Z"/><path id="path3730" class="cls-4" d="M266.93,375.21c-.34-.66-5.17-11.21-10.16-22.16l-5.85-12.87c-.72-1.57-.82-1.88-.66-2a33.86,33.86,0,0,1,3.91-1.26,26.66,26.66,0,0,1,8.16-.79,21.63,21.63,0,0,1,11.35,3.93,23.67,23.67,0,0,1,4.64,4.63,26.05,26.05,0,0,1,2.77,5.4,18.63,18.63,0,0,1-.95,14.28,23,23,0,0,1-10.86,10.21C267.16,375.65,267.15,375.65,266.93,375.21Zm17.21-22.11c0-.15,0-.18.07-.08a.25.25,0,0,1,0,.24s-.07,0-.06-.16Zm-.91-1.57c-.09,0,.1-.1.43-.1a1.69,1.69,0,0,1,.59.05C284.25,351.58,283.37,351.63,283.23,351.53Z"/><path id="path3728" class="cls-5" d="M346.91,515.64c-4.21-3.15-6.92-5.07-10.44-7.43a177.2,177.2,0,0,0-58.62-25.28,215,215,0,0,0-61.42-5.24,184.43,184.43,0,0,0-71.05,18.91c-10.14,5.06-17.75,9.7-29.28,17.84-2.46,1.74-4.55,3.22-4.65,3.27A55.33,55.33,0,0,1,115,513a141.82,141.82,0,0,1,42.84-35.43,152.84,152.84,0,0,1,60.61-17.77,163.83,163.83,0,0,1,24.37,0,152.41,152.41,0,0,1,42.33,9.53,148.57,148.57,0,0,1,59.69,42.19c2,2.32,5.41,6.55,5.26,6.52s-1.47-1.08-3.22-2.38Z"/><path id="path3726" class="cls-6" d="M132.35,484.31A44.38,44.38,0,0,1,129.26,474a48.87,48.87,0,0,1,0-9.75q2.6-16.5,20.44-30.73c13.88-11.08,34.38-21.06,61.08-29.74,7.28-2.37,18.21-5.69,27.61-8.38l1.7-.49,1.43,3.74c.79,2.06,1.65,4.31,1.92,5a4.67,4.67,0,0,1,.42,1.38c-.08.12-3.27,1.15-15.18,4.88-21.45,6.73-32.55,10.87-42.52,15.88A73.2,73.2,0,0,0,171.43,435a47,47,0,0,0-4.62,4.64,17,17,0,0,0-4.17,14.81,25.25,25.25,0,0,0,3.83,8.65c1.06,1.59,1.12,1.72.87,1.79-.64.2-6,2.81-8.72,4.24-9.57,5-18.65,11-24.2,15.86a4.45,4.45,0,0,1-1.19.84C133.06,485.83,132.85,485.47,132.35,484.31ZM268,393.89l-2.17-4.64-1.66-3.55,2.76-1.42c17.9-9.18,27.73-17.89,26.71-23.66-.47-2.7-3-4.85-7.78-6.52-1.65-.59-1.49-.41-1.74-1.84a.72.72,0,0,0-.35-.59c-.19-.08.15-.1,1.09-.06a23.25,23.25,0,0,1,8.3,2.39c3.78,1.89,6.28,4.18,7.54,6.9a8.49,8.49,0,0,1,.89,4c0,2.7-.89,5.18-2.93,8.11-4.48,6.46-13.77,13.33-28.56,21.13l-1.59.84Z"/></g></svg>