<svg xmlns="http://www.w3.org/2000/svg" viewBox="0 0 1476.28 600"><defs><style>.cls-1{font-size:297.14px;font-family:ArialMT, Arial;letter-spacing:0.02em;}.cls-2{fill:#e9e9ea;}.cls-3{fill:#afadb3;}.cls-4{fill:#26acd9;}.cls-5{fill:#c0202f;}</style></defs><g id="_YOUR_TEXT_HERE_" data-name="[YOUR TEXT HERE]"><text class="cls-1" transform="translate(31.53 393.99)"><tspan xml:space="preserve">JSCH  CK</tspan></text><path class="cls-2" d="M857.17,505.56a29.25,29.25,0,0,1,6-1.94c.75-.13,1.36-.33,1.36-.45s-.74-1.94-1.65-4.06-1.71-4-1.79-4.24-.16-.36-.33-.06-1.17,2.71-2.37,5.62-2.23,5.35-2.28,5.44C856,506.13,856.18,506.06,857.17,505.56Z"/><path d="M1039.86,411.32c-10-6.49-35.24-17.06-48.7-20.39-2.11-.53-3-.82-2.92-1s0-.2-.19-.13-.41-.19-.7-.85c-1-2.38-17.11-42.31-44-109.13-9.72-24.18-17.73-44-17.81-44.1s-7.08,15.21-15.57,34l-15.42,34.12c-7.56,5.81-30.8,12.53-30.42,10.24.05-.19,2.47-5.68,5.37-12.2,10.09-22.71,32-72.65,44.48-101.26,6.53-15,7.41-16.75,8.87-17.87,3.16-2.41,6.67-1.29,8.57,2.75.31.66,2.92,6.31,5.8,12.56,4.54,9.83,20,43.18,32.65,70.37,7.22,14.92,13.88,29.81,20.29,43.52,18,38.62,28.38,60.63,34,72.37a77,77,0,0,0,4.11,7.7c2.85,4.43,9.3,13.78,12.46,18.07,1.36,1.85,1.68,2.54,1.17,2.52A24.23,24.23,0,0,1,1039.86,411.32ZM820.4,402.24c-1.38-1.87-4.31-6.59-3.95-6.36s6.84-8.89,13.19-19c8.57-13.57,13.13-21.44,19.84-34.22l1.27-2.41c10.64-6.07,23.23-12.57,33.45-13.75,0,0-27.7,61.55-28.33,62.76-.21.41-.58.61-1.71.94-5.8,1.7-18.14,6-24.35,8.5-2.89,1.17-8.69,3.63-8.89,3.78S820.58,402.48,820.4,402.24Z"/><path id="path3730" class="cls-3" d="M978.41,260.32c-.54-1.06-8.22-17.82-16.14-35.23L953,204.65c-1.14-2.51-1.3-3-1-3.13a53,53,0,0,1,6.2-2,42.12,42.12,0,0,1,13-1.25,34.32,34.32,0,0,1,18,6.24,37.56,37.56,0,0,1,7.38,7.36,41.42,41.42,0,0,1,4.4,8.57,29.67,29.67,0,0,1-1.51,22.71c-3.42,6.83-9.21,12.27-17.26,16.21C978.77,261,978.76,261,978.41,260.32Zm27.35-35.15c0-.23,0-.27.12-.11s0,.31,0,.37-.11-.05-.1-.26Zm-1.45-2.48c-.14-.09.16-.16.69-.16a3.16,3.16,0,0,1,.94.07C1005.94,222.76,1004.54,222.83,1004.31,222.69Z"/><path id="path3728" class="cls-4" d="M1105.51,483.47c-6.7-5-11-8.06-16.59-11.8-28.1-18.81-58.74-32-93.16-40.18-31.09-7.37-66.65-10.41-97.59-8.32-40.82,2.74-78.08,12.66-112.91,30-16.12,8-28.21,15.41-46.53,28.36-3.91,2.76-7.24,5.1-7.4,5.2a87,87,0,0,1,5.7-7.51A225.12,225.12,0,0,1,805.11,423a242.64,242.64,0,0,1,96.32-28.24,258,258,0,0,1,38.72,0,242.32,242.32,0,0,1,67.26,15.14,236.1,236.1,0,0,1,94.86,67c3.17,3.69,8.59,10.41,8.35,10.36,0,0-2.34-1.71-5.11-3.78Z"/><path id="path3726" class="cls-5" d="M764.56,433.67a69.65,69.65,0,0,1-4.92-16.44,78,78,0,0,1,0-15.51q4.14-26.22,32.49-48.83c22-17.6,54.63-33.46,97.06-47.25,11.58-3.77,28.94-9,43.88-13.33l2.7-.78,2.27,6c1.25,3.27,2.63,6.85,3.06,7.95a8,8,0,0,1,.66,2.19c-.12.19-5.19,1.82-24.12,7.76-34.09,10.69-51.72,17.27-67.57,25.22-10.06,5-17.37,9.64-23.41,14.73a72.73,72.73,0,0,0-7.33,7.37,26.91,26.91,0,0,0-6.63,23.54A40.22,40.22,0,0,0,818.77,400c1.68,2.53,1.78,2.72,1.38,2.85-1,.32-9.51,4.45-13.85,6.73-15.21,8-29.64,17.45-38.47,25.2a7,7,0,0,1-1.88,1.33C765.67,436.09,765.34,435.52,764.56,433.67ZM980,290l-3.44-7.37L974,277l4.39-2.26c28.43-14.59,44.06-28.43,42.44-37.6-.75-4.28-4.83-7.69-12.37-10.36-2.63-.92-2.36-.64-2.76-2.91a1.13,1.13,0,0,0-.56-.95c-.3-.13.24-.16,1.74-.1a37.31,37.31,0,0,1,13.18,3.8c6,3,10,6.64,12,11a13.45,13.45,0,0,1,1.42,6.34c0,4.29-1.43,8.24-4.67,12.89-7.12,10.26-21.88,21.18-45.39,33.58l-2.52,1.33Z"/></g></svg>