<svg xmlns="http://www.w3.org/2000/svg" viewBox="0 0 600 600"><defs><style>.cls-1{font-size:249px;font-family:ArialMT, Arial;letter-spacing:0.05em;}.cls-2{font-size:184.46px;letter-spacing:0.03em;}.cls-3{fill:#afadb3;}.cls-4{fill:#26acd9;}.cls-5{fill:#c0202f;}</style></defs><g id="_YOUR_TEXT_HERE_" data-name="[YOUR TEXT HERE]"><text class="cls-1" transform="translate(45.9 297.77)">JSC<tspan class="cls-2"><tspan x="-7.55" y="165.97" xml:space="preserve">H  CK</tspan></tspan></text><path d="M301.6,474.1c-6.29-4.08-22.18-10.74-30.65-12.83-1.33-.33-1.88-.52-1.84-.63s0-.13-.12-.09-.25-.11-.43-.53c-.65-1.5-10.77-26.62-27.68-68.67-6.12-15.22-11.16-27.71-11.21-27.76s-4.46,9.58-9.8,21.38l-9.7,21.47c-4.76,3.66-19.38,7.89-19.15,6.45,0-.12,1.56-3.58,3.38-7.68,6.35-14.29,20.16-45.72,28-63.72,4.11-9.43,4.66-10.54,5.58-11.25,2-1.51,4.19-.81,5.39,1.73.2.42,1.84,4,3.65,7.91,2.86,6.19,12.59,27.17,20.55,44.28,4.54,9.39,8.73,18.76,12.77,27.39,11.35,24.3,17.86,38.15,21.39,45.54a51.93,51.93,0,0,0,2.59,4.85c1.8,2.78,5.86,8.67,7.84,11.37.86,1.16,1.06,1.59.74,1.58C302.86,474.89,302.27,474.53,301.6,474.1Zm-138.1-5.71a29,29,0,0,1-2.49-4c.28.18,4.3-5.59,8.3-11.93,5.39-8.54,8.26-13.49,12.49-21.53l.79-1.52c6.7-3.82,14.62-7.91,21-8.65,0,0-17.43,38.73-17.82,39.49-.14.26-.37.39-1.08.6-3.65,1.06-11.42,3.78-15.33,5.35-1.82.73-5.46,2.28-5.59,2.37S163.61,468.53,163.5,468.39Z"/><path id="path3730" class="cls-3" d="M262.93,379.08c-.34-.67-5.17-11.22-10.16-22.17-2.75-6.05-5.39-11.84-5.85-12.87-.72-1.57-.82-1.88-.66-2a35.64,35.64,0,0,1,3.9-1.26,26.75,26.75,0,0,1,8.17-.79A21.72,21.72,0,0,1,269.68,344a23.94,23.94,0,0,1,4.64,4.63,26.05,26.05,0,0,1,2.77,5.4,18.64,18.64,0,0,1-1,14.28,22.92,22.92,0,0,1-10.85,10.21C263.16,379.51,263.15,379.51,262.93,379.08ZM280.14,357c0-.14,0-.17.07-.07a.23.23,0,0,1,0,.23c0,.05-.07,0-.06-.16Zm-.92-1.57c-.08-.05.11-.09.44-.1a1.69,1.69,0,0,1,.59,0C280.25,355.44,279.37,355.49,279.22,355.39Z"/><path id="path3728" class="cls-4" d="M342.91,519.5c-4.21-3.14-6.92-5.07-10.44-7.43a177.41,177.41,0,0,0-58.62-25.28,215.06,215.06,0,0,0-61.42-5.24,184.43,184.43,0,0,0-71.05,18.91c-10.14,5.06-17.75,9.7-29.28,17.85-2.46,1.74-4.56,3.21-4.65,3.27a51.9,51.9,0,0,1,3.58-4.72,141.71,141.71,0,0,1,42.84-35.44,152.84,152.84,0,0,1,60.61-17.77,162.5,162.5,0,0,1,24.37,0,152.13,152.13,0,0,1,42.33,9.53,148.52,148.52,0,0,1,59.69,42.18c2,2.32,5.41,6.55,5.26,6.52s-1.47-1.07-3.22-2.38Z"/><path id="path3726" class="cls-5" d="M128.35,488.17a44.32,44.32,0,0,1-3.09-10.35,48.23,48.23,0,0,1,0-9.76q2.59-16.5,20.44-30.73c13.88-11.08,34.37-21.05,61.07-29.74,7.29-2.36,18.22-5.68,27.62-8.38l1.7-.49,1.43,3.74c.78,2.06,1.65,4.31,1.92,5a5,5,0,0,1,.42,1.38c-.08.12-3.27,1.15-15.18,4.89-21.45,6.72-32.55,10.86-42.52,15.87a73.59,73.59,0,0,0-14.74,9.26,48,48,0,0,0-4.61,4.64,17,17,0,0,0-4.17,14.82,25.42,25.42,0,0,0,3.83,8.65c1.06,1.58,1.12,1.71.87,1.78-.64.21-6,2.81-8.72,4.24-9.57,5-18.65,11-24.21,15.86a4.31,4.31,0,0,1-1.18.84C129.06,489.69,128.85,489.33,128.35,488.17ZM264,397.75l-2.17-4.64-1.66-3.55,2.76-1.42c17.9-9.18,27.73-17.89,26.71-23.66-.47-2.7-3-4.84-7.78-6.52-1.66-.58-1.49-.4-1.74-1.83a.72.72,0,0,0-.35-.6c-.19-.08.15-.1,1.09-.06a23.25,23.25,0,0,1,8.3,2.39c3.78,1.89,6.28,4.18,7.54,6.9a8.49,8.49,0,0,1,.89,4c0,2.7-.9,5.18-2.93,8.11-4.49,6.46-13.77,13.33-28.57,21.13l-1.58.84Z"/></g></svg>